<?xml version="1.0" encoding="UTF-8"?><svg xmlns="http://www.w3.org/2000/svg" width="50" height="52" xmlns:xlink="http://www.w3.org/1999/xlink" viewBox="0 0 194.54 201.85"><defs><style>.cls-1,.cls-2,.cls-3{fill:none;}.cls-4{clip-path:url(#clippath);}.cls-5{fill:#fff;}.cls-6{fill:#b8e600;}.cls-7{fill:#2a2b27;}.cls-2{stroke:#fff;stroke-width:2.23px;}.cls-2,.cls-3{stroke-miterlimit:10;}.cls-8{fill:#ededed;}.cls-8,.cls-9{mix-blend-mode:multiply;}.cls-3{stroke:#2a2b27;stroke-linecap:round;stroke-width:1.77px;}.cls-10{isolation:isolate;}.cls-9{opacity:.29;}</style><clipPath id="clippath"><rect class="cls-1" x="35.69" y="61.99" width="102.72" height="131.54"/></clipPath></defs><g class="cls-10"><g id="Livello_2"><g id="Livello_1-2"><g><path class="cls-6" d="m64.55,160.47s2.4,24-14.8,30.4c-17.2,6.4,35.59,2,40.39-21.2,4.8-23.2-25.6-9.2-25.6-9.2"/><path class="cls-2" d="m48.78,200.74c-7.57,0-9.2-4.56-9.56-6.52-.22-1.21-.57-5.39,4.04-8.26,1.02-.63,2.28-1.22,3.97-1.85,3.77-1.4,6.45-4.24,8.18-8.66,1.09-2.78,1.61-5.73,1.84-8.15-13.01-10.33-22.34-24.7-26.44-40.88-4.99-19.69-2.01-40.14,8.39-57.6,10.4-17.45,26.97-29.81,46.66-34.79,6.14-1.56,12.44-2.35,18.72-2.35,16.61,0,33.06,5.6,46.3,15.78,13.66,10.49,23.13,24.88,27.36,41.62,4.99,19.69,2.01,40.14-8.39,57.6-10.4,17.45-26.97,29.81-46.66,34.79-6.13,1.55-12.43,2.34-18.7,2.34h0c-4.38,0-8.77-.38-13.09-1.14-11.44,13.52-34.94,18.08-42.64,18.08Z"/><path class="cls-6" d="m173.38,107.48c.14,38.02-30.56,68.95-68.57,69.1-38.02.14-68.95-30.56-69.1-68.57-.14-38.02,30.56-68.95,68.57-69.1,38.02-.14,68.95,30.56,69.1,68.57"/><g class="cls-9"><g class="cls-4"><path class="cls-7" d="m123.04,169.11c-43.25,0-78.31-33.06-78.31-73.85,0-11.97,3.02-23.27,8.39-33.27-14.63,16.48-21.11,39.68-15.29,62.65,4.18,16.49,13.98,30.06,26.84,39.2-.06,6.84-1.71,22.11-14.91,27.02-15.89,5.91,27.97,2.61,38.52-16.23,10.57,2.58,21.9,2.69,33.18-.16,6.08-1.54,11.76-3.85,16.97-6.79-4.97.93-10.11,1.43-15.38,1.43"/></g></g><polygon class="cls-5" points="72 45.2 38.45 72.11 15.8 48.79 54.17 18.02 72 45.2"/><path class="cls-7" d="m72.5,45.81l-33.56,26.91c-.32.25-.78.23-1.06-.07l-16.2-16.67c-.3-.31-.3-.81.02-1.11.31-.31.81-.3,1.12.02l15.7,16.16,32.44-26.01-12.36-18.84c-.24-.36-.14-.85.23-1.09.36-.24.85-.14,1.09.23l12.76,19.44c.22.34.15.79-.17,1.05"/><path class="cls-5" d="m42.98,4.36c-1.53,1.22-2.78,2.67-3.74,4.25-6.4-2.17-13.73-1.14-19.39,3.4-5.72,4.59-8.32,11.63-7.51,18.41-1.93.59-3.79,1.54-5.47,2.88C-.14,38.93-1.26,49.17,4.36,56.18c5.62,7.01,15.87,8.14,22.88,2.52,3.33-2.67,5.33-6.38,5.91-10.29,4.33-.1,8.65-1.57,12.29-4.49,3.52-2.82,5.85-6.57,6.94-10.61,3.83.18,7.73-.97,10.95-3.56,7.01-5.62,8.14-15.87,2.52-22.88C60.23-.14,49.99-1.26,42.98,4.36"/><path class="cls-7" d="m63.83,30.37c-3.08,2.47-6.92,3.79-10.86,3.75-1.24,4.12-3.67,7.72-7.04,10.42-3.49,2.8-7.67,4.4-12.11,4.63-.75,4-2.9,7.58-6.09,10.14-7.34,5.89-18.1,4.7-23.99-2.64-5.89-7.34-4.7-18.1,2.64-23.99,1.54-1.23,3.25-2.18,5.11-2.82-.64-7.12,2.27-13.99,7.87-18.48,5.53-4.43,12.79-5.8,19.54-3.72.98-1.49,2.18-2.81,3.58-3.93,7.34-5.89,18.1-4.7,23.99,2.64,5.89,7.34,4.7,18.1-2.64,23.99m-11.94,2.32c.15-.12.33-.18.53-.17,3.77.18,7.48-1.02,10.42-3.38,6.66-5.34,7.74-15.11,2.39-21.77-5.34-6.66-15.11-7.74-21.77-2.39-1.42,1.14-2.62,2.5-3.55,4.05-.19.32-.58.46-.93.34-6.41-2.18-13.37-.95-18.64,3.27-5.34,4.28-8.04,10.9-7.22,17.7.05.38-.19.74-.56.85-1.9.57-3.65,1.5-5.2,2.74-6.66,5.34-7.74,15.11-2.39,21.77,5.34,6.66,15.11,7.74,21.77,2.39,3.05-2.45,5.05-5.92,5.63-9.79.06-.38.38-.66.76-.67,4.34-.1,8.42-1.6,11.81-4.31,3.28-2.63,5.58-6.15,6.68-10.2.04-.17.14-.31.27-.41"/><path class="cls-7" d="m23.09,31.63c-.24.19-.58.23-.87.08-.02-.01-2.13-1.13-4.21-1.3-2.68-.22-5.37.74-5.4.75-.41.15-.86-.06-1.01-.47-.15-.41.06-.86.47-1.01.12-.04,3.04-1.1,6.07-.84,2.41.2,4.73,1.43,4.83,1.48.38.21.53.68.32,1.07-.05.1-.12.18-.2.24"/><path class="cls-6" d="m39.11,72.81l4.72,5.52c.9,1.05,2.55,1,3.38-.11,4.11-5.53,15.58-20.16,27.28-27.89.43-.29.55-.87.25-1.29l-2.16-3.08c-.3-.43-1.82-1.94-2.23-1.61l-31.11,27.16c-.4.32-.46.91-.12,1.31"/><path class="cls-7" d="m45.51,80.34c-.65,0-1.25-.28-1.67-.77l-6.46-7.55,33.63-29.73,3.99,5.75c.36.52.5,1.16.39,1.78-.12.63-.47,1.17-1,1.53-12.01,8.16-23.78,23.56-27.1,28.09-.4.55-1.02.87-1.69.9-.03,0-.06,0-.09,0Zm-5.91-8.17l5.44,6.36c.12.14.33.22.49.22.11,0,.32-.04.47-.25,3.36-4.58,15.26-20.16,27.49-28.46.18-.12.29-.3.33-.51.04-.2,0-.41-.13-.59l-2.97-4.29-31.12,27.52Z"/><path class="cls-6" d="m175,105.37c-2.9,0-5.24-1.66-5.95-4.24-.43-1.41-.27-2.97.49-4.34.19-.34.41-.67.66-.97-.66-.23-1.29-.56-1.87-.99-1.73-1.2-2.93-3-3.62-5.49l-.03-.12-.02-.12c-1.41-9.17,5.15-14.7,10.21-18.06,2.92-1.79,3.95-3.48,3.7-4.36-.22-.76-1.56-1.53-3.71-1.53-.58,0-1.19.06-1.81.17-3.12.53-5.85,2.11-7.71,4.45-1.26,1.68-3.07,2.63-5.06,2.63-2.75,0-5.38-1.87-6.25-4.45-.84-2.47.06-5.04,2.41-6.89,3.3-3.2,7.06-5.5,11.18-6.84,2.25-.74,4.82-1.12,7.44-1.12,6.68,0,12.36,2.48,15.2,6.63,1.95,2.88,2.62,5.88,2.02,8.93-1.08,5.48-6.08,9.52-8.96,11.44l-.57.38c-4.28,2.84-5.25,4.28-5.31,4.99,0,.05-.01.17.25.42l.14.13.11.16c1.9,2.58,1.94,5.32.17,7.46,1.85.66,3.32,2.1,3.88,3.92.43,1.55.24,3.11-.53,4.43-.88,1.51-2.43,2.62-4.36,3.11-.67.19-1.39.29-2.1.29"/><path class="cls-7" d="m175.04,55.15c5.25,0,10.74,1.7,13.5,5.74,4.81,7.12-.52,13.59-6.38,17.48-1.85,1.27-9.38,5.76-5.89,9.02,1.42,1.94,1.44,3.83-.16,5.34-.99.93-2.28,1.42-3.57,1.42-1.05,0-2.11-.32-3-.98-1.56-1.08-2.37-2.62-2.86-4.38-1.17-7.63,3.93-12.45,9.31-16.03,7.61-4.67,4.92-9.69-1.16-9.69-.68,0-1.41.06-2.17.2-3.5.59-6.72,2.37-8.97,5.2-.98,1.31-2.23,1.85-3.44,1.85-3.49,0-6.7-4.48-2.48-7.71,2.98-2.91,6.52-5.15,10.46-6.44,2.02-.66,4.39-1.02,6.8-1.02m.73,40.13c1.95,0,3.73,1.18,4.25,2.87.6,2.17-.78,4.25-3.43,4.93-.54.15-1.08.22-1.59.22-1.91,0-3.49-1.01-3.96-2.72-.68-2.21.92-4.42,3.32-5.09.47-.14.95-.21,1.41-.21m-.73-44.27c-2.84,0-5.63.42-8.09,1.23-4.39,1.43-8.39,3.87-11.9,7.25-2.95,2.38-4.1,5.85-3,9.11,1.17,3.45,4.54,5.85,8.21,5.85,2.63,0,5.01-1.22,6.7-3.45,1.54-1.92,3.81-3.22,6.39-3.66.53-.09,1.02-.14,1.48-.14.57,0,1.01.07,1.33.16-.36.43-1.04,1.08-2.33,1.87l-.06.04-.06.04c-12.88,8.56-11.54,17.24-11.11,20.1l.04.24.06.24c.82,2.95,2.27,5.12,4.44,6.64.06.04.11.08.17.12-.66,1.63-.75,3.4-.25,5.08.97,3.41,4.15,5.7,7.93,5.7.88,0,1.77-.12,2.65-.36,2.46-.64,4.45-2.08,5.6-4.06,1.05-1.81,1.32-3.93.75-5.97l-.02-.06-.02-.05c-.52-1.68-1.6-3.11-3.01-4.13.91-2.35.56-5.04-1.09-7.49.54-.6,1.68-1.58,4.02-3.13.24-.16.45-.3.61-.41,3.8-2.53,8.63-6.82,9.8-12.73.7-3.56-.1-7.19-2.33-10.48-3.29-4.81-9.46-7.55-16.92-7.55"/><path class="cls-7" d="m45.22,102.89c-.02.21-.04.42-.05.63l8.38.55c.02-.21.04-.42.05-.63l-8.38-.55Z"/><path class="cls-7" d="m163.49,111.33c.01-.21.02-.42.03-.64l-8.38-.55c0,.21-.02.42-.03.64l8.37.55Z"/><path class="cls-7" d="m163.34,102.53c-.02-.21-.04-.42-.06-.63l-8.36.72c.02.21.04.42.06.63l8.36-.72Z"/><path class="cls-7" d="m162.02,94.37c-.05-.21-.1-.41-.15-.62l-8.18,1.9c.05.21.1.41.15.62l8.18-1.9Z"/><path class="cls-7" d="m159.38,86.01c-.08-.2-.16-.39-.24-.59l-7.8,3.11c.08.2.16.39.24.59l7.8-3.11Z"/><path class="cls-7" d="m149.52,69.66c-.14-.16-.27-.32-.41-.48l-6.36,5.47c.14.16.28.32.41.48l6.36-5.47Z"/><path class="cls-7" d="m59.2,146.49c.14.16.27.32.41.48l6.36-5.47c-.14-.16-.28-.32-.41-.48l-6.36,5.47Z"/><path class="cls-7" d="m65.67,152.99c.16.14.33.27.49.41l5.47-6.37c-.16-.14-.33-.27-.49-.41l-5.47,6.37Z"/><path class="cls-7" d="m143.38,63.41c-.16-.14-.32-.28-.48-.42l-5.47,6.37c.16.14.32.28.48.42l5.47-6.37Z"/><path class="cls-7" d="m136.82,58.41c-.18-.12-.35-.23-.53-.35l-4.51,7.08c.18.11.36.23.53.35l4.51-7.08Z"/><path class="cls-7" d="m72.6,158.12c.18.11.36.22.54.33l4.51-7.08c-.18-.11-.36-.22-.54-.33l-4.51,7.08Z"/><path class="cls-7" d="m129.14,54.15c-.19-.09-.38-.18-.58-.27l-3.39,7.68c.19.09.39.18.58.27l3.39-7.68Z"/><path class="cls-7" d="m80.69,162.4c.19.08.39.17.58.25l3.39-7.68c-.2-.08-.39-.17-.58-.25l-3.39,7.68Z"/><path class="cls-7" d="m109.49,48.93c-.21-.02-.42-.04-.63-.05l-.54,8.38c.21.02.42.03.63.05l.54-8.38Z"/><path class="cls-7" d="m101.2,167.21c.21.01.42.02.64.03l.54-8.38c-.21,0-.43-.02-.64-.03l-.54,8.38Z"/><path class="cls-7" d="m110.28,166.99c.21-.02.42-.04.63-.07l-.73-8.37c-.21.02-.42.05-.63.07l.73,8.36Z"/><path class="cls-7" d="m100.65,48.82c-.21.01-.42.03-.63.04l.73,8.36c.21-.01.42-.03.63-.04l-.73-8.36Z"/><path class="cls-7" d="m92.37,49.9c-.21.04-.41.09-.62.13l1.91,8.18c.21-.04.42-.09.62-.13l-1.91-8.18Z"/><path class="cls-7" d="m118.68,165.53c.21-.05.41-.1.62-.15l-1.91-8.18c-.2.05-.41.11-.62.16l1.91,8.18Z"/><path class="cls-7" d="m127.26,162.68c.2-.08.39-.16.59-.25l-3.12-7.8c-.19.08-.39.17-.58.25l3.12,7.8Z"/><path class="cls-7" d="m83.81,52.34c-.2.07-.4.15-.6.23l3.12,7.8c.2-.08.4-.15.6-.22l-3.12-7.8Z"/><path class="cls-7" d="m143.42,152.55c.16-.14.32-.28.47-.42l-5.43-6.41c-.16.14-.31.28-.47.42l5.43,6.41Z"/><path class="cls-7" d="m67.28,61.68c-.16.13-.33.27-.49.4l5.43,6.41c.16-.13.33-.27.49-.4l-5.43-6.41Z"/><path class="cls-7" d="m149.67,146.16c.14-.16.27-.32.41-.49l-6.33-5.51c-.13.16-.27.33-.41.49l6.33,5.51Z"/><path class="cls-7" d="m60.7,67.81c-.14.16-.29.31-.43.47l6.33,5.51c.14-.16.29-.31.43-.47l-6.33-5.51Z"/><path class="cls-7" d="m154.6,139.39c.11-.18.22-.36.33-.54l-7.05-4.56c-.11.18-.22.36-.33.54l7.05,4.56Z"/><path class="cls-7" d="m55.4,74.45c-.12.17-.24.35-.36.52l7.05,4.56c.12-.18.24-.35.36-.52l-7.05-4.56Z"/><path class="cls-7" d="m158.73,131.53c.08-.19.17-.39.25-.58l-7.66-3.45c-.08.2-.17.39-.25.59l7.66,3.45Z"/><path class="cls-7" d="m50.86,82.28c-.09.19-.18.38-.27.58l7.66,3.45c.09-.19.18-.38.28-.57l-7.66-3.45Z"/><path class="cls-7" d="m117.27,62.09l3.39-13.83c.19-.77-.28-1.54-1.04-1.73h0c-.77-.19-1.54.28-1.73,1.04l-3.39,13.83c-.19.76.28,1.52,1.03,1.71,0,0,.02,0,.03,0,.76.19,1.53-.27,1.72-1.03"/><path class="cls-7" d="m128.77,147.25c-.72.45-.96,1.4-.51,2.12l6.98,11.52c.23.37.58.62.97.72.4.1.83.05,1.21-.18.75-.45.99-1.43.54-2.18l-6.98-11.52c-.45-.74-1.42-.97-2.16-.5-.01,0-.03.02-.04.03"/><path class="cls-7" d="m59.59,96.1c.18-.68-.23-1.38-.92-1.55l-13.79-3.38c-.85-.21-1.72.5-1.56,1.49.08.49.47.86.95.98h0s13.79,3.38,13.79,3.38c.67.16,1.34-.24,1.51-.9v-.02Z"/><path class="cls-7" d="m164.54,120.54h0s-13.6-3.35-13.6-3.35c-.69-.17-1.37.26-1.53.95,0,0,0,.02,0,.02-.15.67.26,1.33.93,1.5l13.6,3.35c.85.21,1.72-.49,1.56-1.49-.08-.49-.47-.86-.95-.98"/><line class="cls-3" x1="47.91" y1="63.43" x2="41.91" y2="57.17"/><line class="cls-3" x1="63.08" y1="49.96" x2="58.08" y2="43.69"/><line class="cls-3" x1="55.82" y1="56.52" x2="48.17" y2="47.73"/><g><path class="cls-7" d="m73.57,123.64c.69,1.86,1.98,5.01,2.59,6.9.55,1.73.11,3.03-1.16,3.94-1.69,1.21-3.89.68-4.77-1.19-.42-.83-.66-1.78-1.01-2.68-2.38-6.03-5.29-13.38-7.7-19.4-.23-.59-1.07-2.47-1.38-3.03-1.21-2.15-.66-4.76,2.17-5.38,3.83-.83,7.31-2.57,10.96-3.87.67-.26,1.35-.49,1.99-.56,1.76-.24,3.17.69,3.54,2.22.4,1.47-.4,3.01-2,3.64-2.7,1.07-5.39,2.04-8.11,3.07-.43.17-.86.34-1.33.53,1.05,2.66,2.04,5.17,3.09,7.83.6-.19,1.18-.33,1.69-.53,1.35-.49,2.68-1.01,4.01-1.54,1.45-.57,2.99-.1,3.83,1.11.81,1.13.68,2.76-.39,3.82-.56.54-1.25.95-1.96,1.23-1.25.49-2.59.89-3.87,1.3-.27.11-.55.22-1.06.42.32.82.63,1.47.87,2.19Z"/><path class="cls-7" d="m87.5,108.96c-.31,1.84-1.98,3-3.81,2.73s-2.96-1.77-2.64-3.71c.16-.97.45-1.94.87-2.83,3.3-6.87,10.6-9.12,15.47-4.71,2.93,2.6,4.77,7.84,6.51,11.23.98,2.01,1.81,3.67,1.9,5.85.04,1.48-1.18,2.73-2.69,2.92-.86.11-1.39.5-1.97,1.09-2,2.28-4.45,3.75-7.46,4.26-7.63,1.29-10.62-8.11-5.77-13.01,1.93-1.98,4.82-3.03,7.44-3.62-2.75-6.97-7.04-5.23-7.86-.2Zm4.61,9.49c.31,1.01,1.82,1.41,3.79-.14.79-.63,1.47-1.44,1.75-2.45-1.91-1.74-6.24.11-5.54,2.59Z"/><path class="cls-7" d="m111.89,117.69c-1.33.07-2.43-.53-3.12-1.84-2.99-5.29-4.99-12.87-5.84-17.87-.19-1.51.26-2.77,1.54-3.55,1.94-1.26,4.32-.17,4.96,2.25.12.54.54,2.28.71,3.07,2.24-4.87,5.72-3.84,8.94-1.31.75-3.01,1.53-5.63,3.64-7.63,2.38-2.21,5.86-2.58,8.74-.78,4.11,2.72,6.9,7.05,9.96,10.68,1.06,1.3,1.22,2.87.37,4.15-.8,1.31-2.45,1.92-3.87,1.21-.8-.41-1.57-1.1-2.22-1.84-1.65-1.88-3.22-3.93-4.89-5.85-2.94-3.32-5.18-2.8-5.12,1.93,0,2.4.38,4.51.57,6.61.13,1.58-.43,2.8-1.63,3.54-1.28.78-2.67.69-3.94-.25-.69-.5-1.35-1.14-1.87-1.88-6.39-8.97-5.25-1.5-3.98,5.05.45,2.4-.84,4.18-2.95,4.33Z"/><path class="cls-7" d="m157.04,92.94c.7-.87,1.44-1.52,2.56-1.65,2.44-.24,4.13,1.86,3.22,4.15-.66,1.66-1.88,2.91-3.4,3.88-7.64,4.83-15.1.94-17.86-5.93-2.66-6.73-.58-13.61,5.79-16.63,11.05-5.13,17.59,10.74,6.91,15.09-1.39.59-2.86,1.13-4.5,1.78,1.49,2.4,5.37,1.68,7.28-.7Zm-6.29-6.29c3.99-1.58,2.84-5.74-.91-4.25-2.01.75-3.07,3.34-2.79,5.54,1.28-.42,2.49-.8,3.7-1.28Z"/></g><path class="cls-7" d="m43.66,111.86c-.75-2.26.49-4.63,2.86-5.41,2.43-.8,5.01.36,5.8,2.55.8,2.24-.49,4.63-2.86,5.41-2.48.82-5-.3-5.8-2.55Zm6.05,6.26c2.41-.86,4.87.29,5.78,2.86,1.35,3.9,3.91,11.43,5.09,15.38.93,3-1.04,5.73-4.03,5.92-2.04.12-3.71-.85-4.4-2.76-3.43-10.37-4.18-12.99-5.15-15.55-.95-2.5.42-5.03,2.71-5.85Z"/><path class="cls-8" d="m30.26,63.39s7.17-5.19,7.17-11c0,0,13.84-3.71,16.19-16.68,0,0,7.29-1.36,8.9-4.82,0,0-4.42,2.62-10.12,2.42,0,0-2.99,14.21-19.23,15.1,0,0-1.44,7.78-6.58,11.1l3.68,3.87Z"/><path class="cls-8" d="m22.44,30.93s-.43-2.78-7.4-3.53c0,0-1.09-14.94,15.07-19.31,0,0-18.3,1.12-17.77,22.33,0,0,5.23-2.29,10.1.51Z"/><path class="cls-7" d="m99.59,154.02s-.01,0-.02,0c-.08-.02-.17-.03-.25-.03-.03-.03-.07-.05-.13-.07l-9.83-2.12c-.16-.04-.25,0-.32.09-.04-.01-.08-.03-.12-.03,0,0-.02,0-.02,0-.6-.07-1.16.49-1.26,1.27l-1.76,13.53c-.02.17-.02.34,0,.49-.06.51.2.99.65,1.1l8.41,2.1s.03,0,.05,0c0,0,.01,0,.02,0h0c.59.17,1.24-.33,1.46-1.11l3.78-13.52c.22-.78-.08-1.54-.67-1.7m-5.08,14.02l-6.37-1.59,1.57-12.1,8.14,1.77-3.33,11.91Z"/><path class="cls-7" d="m89.03,166.37c-.09,0-.18-.02-.26-.07-.23-.13-.3-.43-.17-.65l11.93-20.18c.13-.23.42-.3.65-.17.23.13.3.43.17.65l-11.93,20.18c-.09.14-.23.23-.39.23Z"/></g></g></g></g></svg>